<svg width="64" height="50" viewBox="0 0 64 50" fill="none" xmlns="http://www.w3.org/2000/svg">
<g clip-path="url(#clip0_58_72)">
<mask id="mask0_58_72" style="mask-type:luminance" maskUnits="userSpaceOnUse" x="12" y="2" width="37" height="48">
<path d="M48.3895 2.47266H39.4526L12.999 49.9645H21.9359L33.2579 29.6378L28.6099 49.9999H37.5468L48.3895 2.50804H48.3704L48.3895 2.47266Z" fill="white"/>
</mask>
<g mask="url(#mask0_58_72)">
<path d="M48.8921 49.0683C45.9074 49.2688 42.9189 49.3356 39.9285 49.2845C38.5975 49.2413 36.7566 49.1548 35.4467 49.1351C32.4581 49.0899 29.4715 49.2963 26.4849 49.316C22.0012 49.3985 17.5213 49.3415 13.0414 49.0683C13.007 49.0683 13.007 49.0093 13.0414 49.0093C17.5213 48.7361 22.0012 48.6791 26.4849 48.7617C29.4715 48.7833 32.4601 48.9897 35.4486 48.9425C38.3893 48.8619 41.4714 48.7007 44.4122 48.8088C45.9055 48.8422 47.4007 48.9012 48.894 49.0074C48.9284 49.0074 48.9284 49.0663 48.894 49.0663L48.8921 49.0683Z" fill="#EAEAEA"/>
<path d="M48.8921 46.7468C45.9074 46.9473 42.9189 47.0141 39.9285 46.963C38.5975 46.9197 36.7566 46.8333 35.4467 46.8136C32.4581 46.7684 29.4715 46.9748 26.4849 46.9944C22.0012 47.077 17.5213 47.02 13.0414 46.7468C13.007 46.7468 13.007 46.6878 13.0414 46.6878C17.5213 46.4146 22.0012 46.3576 26.4849 46.4401C29.4715 46.4617 32.4601 46.6681 35.4486 46.621C38.3893 46.5404 41.4714 46.3792 44.4122 46.4873C45.9055 46.5207 47.4007 46.5797 48.894 46.6858C48.9284 46.6858 48.9284 46.7448 48.894 46.7448L48.8921 46.7468Z" fill="#EAEAEA"/>
<path d="M48.8921 44.4274C45.9074 44.6279 42.9189 44.6948 39.9285 44.6436C38.5975 44.6004 36.7566 44.5139 35.4467 44.4943C32.4581 44.4491 29.4715 44.6554 26.4849 44.6751C22.0012 44.7577 17.5213 44.7007 13.0414 44.4274C13.007 44.4274 13.007 44.3685 13.0414 44.3685C17.5213 44.0952 22.0012 44.0382 26.4849 44.1208C29.4715 44.1424 32.4601 44.3488 35.4486 44.3016C38.3893 44.221 41.4714 44.0599 44.4122 44.168C45.9055 44.2014 47.4007 44.2604 48.894 44.3665C48.9284 44.3665 48.9284 44.4255 48.894 44.4255L48.8921 44.4274Z" fill="#EAEAEA"/>
<path d="M48.8921 42.1059C45.9074 42.3064 42.9189 42.3732 39.9285 42.3221C38.5975 42.2789 36.7566 42.1924 35.4467 42.1727C32.4581 42.1275 29.4715 42.3339 26.4849 42.3536C22.0012 42.4361 17.5213 42.3791 13.0414 42.1059C13.007 42.1059 13.007 42.0469 13.0414 42.0469C17.5213 41.7737 22.0012 41.7167 26.4849 41.7993C29.4715 41.8209 32.4601 42.0273 35.4486 41.9801C38.3893 41.8995 41.4714 41.7383 44.4122 41.8464C45.9055 41.8798 47.4007 41.9388 48.894 42.045C48.9284 42.045 48.9284 42.1039 48.894 42.1039L48.8921 42.1059Z" fill="#EAEAEA"/>
<path d="M48.8921 39.7866C45.9074 39.9871 42.9189 40.0539 39.9285 40.0028C38.5975 39.9595 36.7566 39.873 35.4467 39.8534C32.4581 39.8082 29.4715 40.0146 26.4849 40.0342C22.0012 40.1168 17.5213 40.0598 13.0414 39.7866C13.007 39.7866 13.007 39.7276 13.0414 39.7276C17.5213 39.4544 22.0012 39.3974 26.4849 39.4799C29.4715 39.5015 32.4601 39.7079 35.4486 39.6608C38.3893 39.5802 41.4714 39.419 44.4122 39.5271C45.9055 39.5605 47.4007 39.6195 48.894 39.7256C48.9284 39.7256 48.9284 39.7846 48.894 39.7846L48.8921 39.7866Z" fill="#EAEAEA"/>
<path d="M48.8921 37.467C45.9074 37.6675 42.9189 37.7343 39.9285 37.6832C38.5975 37.64 36.7566 37.5535 35.4467 37.5338C32.4581 37.4886 29.4715 37.695 26.4849 37.7146C22.0012 37.7972 17.5213 37.7402 13.0414 37.467C13.007 37.467 13.007 37.408 13.0414 37.408C17.5213 37.1348 22.0012 37.0778 26.4849 37.1603C29.4715 37.182 32.4601 37.3884 35.4486 37.3412C38.3893 37.2606 41.4714 37.0994 44.4122 37.2075C45.9055 37.2409 47.4007 37.2999 48.894 37.406C48.9284 37.406 48.9284 37.465 48.894 37.465L48.8921 37.467Z" fill="#EAEAEA"/>
<path d="M48.8921 35.1457C45.9074 35.3462 42.9189 35.413 39.9285 35.3619C38.5975 35.3187 36.7566 35.2322 35.4467 35.2125C32.4581 35.1673 29.4715 35.3737 26.4849 35.3934C22.0012 35.4759 17.5213 35.4189 13.0414 35.1457C13.007 35.1457 13.007 35.0867 13.0414 35.0867C17.5213 34.8135 22.0012 34.7565 26.4849 34.8391C29.4715 34.8607 32.4601 35.0671 35.4486 35.0199C38.3893 34.9393 41.4714 34.7781 44.4122 34.8862C45.9055 34.9196 47.4007 34.9786 48.894 35.0848C48.9284 35.0848 48.9284 35.1437 48.894 35.1437L48.8921 35.1457Z" fill="#EAEAEA"/>
<path d="M48.8921 32.8261C45.9074 33.0266 42.9189 33.0934 39.9285 33.0423C38.5975 32.9991 36.7566 32.9126 35.4467 32.8929C32.4581 32.8477 29.4715 33.0541 26.4849 33.0738C22.0012 33.1563 17.5213 33.0993 13.0414 32.8261C13.007 32.8261 13.007 32.7671 13.0414 32.7671C17.5213 32.4939 22.0012 32.4369 26.4849 32.5195C29.4715 32.5411 32.4601 32.7475 35.4486 32.7003C38.3893 32.6197 41.4714 32.4585 44.4122 32.5666C45.9055 32.6001 47.4007 32.659 48.894 32.7652C48.9284 32.7652 48.9284 32.8241 48.894 32.8241L48.8921 32.8261Z" fill="#EAEAEA"/>
<path d="M48.8921 30.5048C45.9074 30.7053 42.9189 30.7721 39.9285 30.721C38.5975 30.6778 36.7566 30.5913 35.4467 30.5717C32.4581 30.5264 29.4715 30.7328 26.4849 30.7525C22.0012 30.835 17.5213 30.778 13.0414 30.5048C13.007 30.5048 13.007 30.4459 13.0414 30.4459C17.5213 30.1726 22.0012 30.1156 26.4849 30.1982C29.4715 30.2198 32.4601 30.4262 35.4486 30.379C38.3893 30.2984 41.4714 30.1372 44.4122 30.2454C45.9055 30.2788 47.4007 30.3377 48.894 30.4439C48.9284 30.4439 48.9284 30.5029 48.894 30.5029L48.8921 30.5048Z" fill="#EAEAEA"/>
<path d="M48.8921 28.1852C45.9074 28.3857 42.9189 28.4526 39.9285 28.4015C38.5975 28.3582 36.7566 28.2717 35.4467 28.2521C32.4581 28.2069 29.4715 28.4133 26.4849 28.4329C22.0012 28.5155 17.5213 28.4585 13.0414 28.1852C13.007 28.1852 13.007 28.1263 13.0414 28.1263C17.5213 27.853 22.0012 27.796 26.4849 27.8786C29.4715 27.9002 32.4601 28.1066 35.4486 28.0594C38.3893 27.9788 41.4714 27.8177 44.4122 27.9258C45.9055 27.9592 47.4007 28.0182 48.894 28.1243C48.9284 28.1243 48.9284 28.1833 48.894 28.1833L48.8921 28.1852Z" fill="#EAEAEA"/>
<path d="M48.8921 25.864C45.9074 26.0644 42.9189 26.1313 39.9285 26.0802C38.5975 26.0369 36.7566 25.9504 35.4467 25.9308C32.4581 25.8856 29.4715 26.092 26.4849 26.1116C22.0012 26.1942 17.5213 26.1372 13.0414 25.864C13.007 25.864 13.007 25.805 13.0414 25.805C17.5213 25.5318 22.0012 25.4748 26.4849 25.5573C29.4715 25.5789 32.4601 25.7853 35.4486 25.7382C38.3893 25.6576 41.4714 25.4964 44.4122 25.6045C45.9055 25.6379 47.4007 25.6969 48.894 25.803C48.9284 25.803 48.9284 25.862 48.894 25.862L48.8921 25.864Z" fill="#EAEAEA"/>
<path d="M48.8921 23.5444C45.9074 23.7449 42.9189 23.8117 39.9285 23.7606C38.5975 23.7173 36.7566 23.6309 35.4467 23.6112C32.4581 23.566 29.4715 23.7724 26.4849 23.792C22.0012 23.8746 17.5213 23.8176 13.0414 23.5444C13.007 23.5444 13.007 23.4854 13.0414 23.4854C17.5213 23.2122 22.0012 23.1552 26.4849 23.2377C29.4715 23.2594 32.4601 23.4657 35.4486 23.4186C38.3893 23.338 41.4714 23.1768 44.4122 23.2849C45.9055 23.3183 47.4007 23.3773 48.894 23.4834C48.9284 23.4834 48.9284 23.5424 48.894 23.5424L48.8921 23.5444Z" fill="#EAEAEA"/>
<path d="M48.8921 21.225C45.9074 21.4255 42.9189 21.4924 39.9285 21.4413C38.5975 21.398 36.7566 21.3115 35.4467 21.2919C32.4581 21.2467 29.4715 21.4531 26.4849 21.4727C22.0012 21.5553 17.5213 21.4983 13.0414 21.225C13.007 21.225 13.007 21.1661 13.0414 21.1661C17.5213 20.8928 22.0012 20.8358 26.4849 20.9184C29.4715 20.94 32.4601 21.1464 35.4486 21.0992C38.3893 21.0186 41.4714 20.8575 44.4122 20.9656C45.9055 20.999 47.4007 21.058 48.894 21.1641C48.9284 21.1641 48.9284 21.2231 48.894 21.2231L48.8921 21.225Z" fill="#EAEAEA"/>
<path d="M48.8921 18.9035C45.9074 19.104 42.9189 19.1708 39.9285 19.1197C38.5975 19.0765 36.7566 18.99 35.4467 18.9703C32.4581 18.9251 29.4715 19.1315 26.4849 19.1512C22.0012 19.2337 17.5213 19.1767 13.0414 18.9035C13.007 18.9035 13.007 18.8445 13.0414 18.8445C17.5213 18.5713 22.0012 18.5143 26.4849 18.5969C29.4715 18.6185 32.4601 18.8249 35.4486 18.7777C38.3893 18.6971 41.4714 18.5359 44.4122 18.644C45.9055 18.6775 47.4007 18.7364 48.894 18.8426C48.9284 18.8426 48.9284 18.9015 48.894 18.9015L48.8921 18.9035Z" fill="#EAEAEA"/>
<path d="M48.8921 14.2626C45.9074 14.4631 42.9189 14.53 39.9285 14.4789C38.5975 14.4356 36.7566 14.3491 35.4467 14.3295C32.4581 14.2843 29.4715 14.4906 26.4849 14.5103C22.0012 14.5929 17.5213 14.5359 13.0414 14.2626C13.007 14.2626 13.007 14.2037 13.0414 14.2037C17.5213 13.9304 22.0012 13.8734 26.4849 13.956C29.4715 13.9776 32.4601 14.184 35.4486 14.1368C38.3893 14.0562 41.4714 13.8951 44.4122 14.0032C45.9055 14.0366 47.4007 14.0956 48.894 14.2017C48.9284 14.2017 48.9284 14.2607 48.894 14.2607L48.8921 14.2626Z" fill="#EAEAEA"/>
<path d="M48.8921 16.5842C45.9074 16.7847 42.9189 16.8515 39.9285 16.8004C38.5975 16.7571 36.7566 16.6707 35.4467 16.651C32.4581 16.6058 29.4715 16.8122 26.4849 16.8318C22.0012 16.9144 17.5213 16.8574 13.0414 16.5842C13.007 16.5842 13.007 16.5252 13.0414 16.5252C17.5213 16.252 22.0012 16.195 26.4849 16.2775C29.4715 16.2992 32.4601 16.5055 35.4486 16.4584C38.3893 16.3778 41.4714 16.2166 44.4122 16.3247C45.9055 16.3581 47.4007 16.4171 48.894 16.5232C48.9284 16.5232 48.9284 16.5822 48.894 16.5822L48.8921 16.5842Z" fill="#EAEAEA"/>
<path d="M48.8921 11.9433C45.9074 12.1438 42.9189 12.2106 39.9285 12.1595C38.5975 12.1163 36.7566 12.0298 35.4467 12.0101C32.4581 11.9649 29.4715 12.1713 26.4849 12.191C22.0012 12.2735 17.5213 12.2165 13.0414 11.9433C13.007 11.9433 13.007 11.8843 13.0414 11.8843C17.5213 11.6111 22.0012 11.5541 26.4849 11.6367C29.4715 11.6583 32.4601 11.8647 35.4486 11.8175C38.3893 11.7369 41.4714 11.5757 44.4122 11.6838C45.9055 11.7172 47.4007 11.7762 48.894 11.8824C48.9284 11.8824 48.9284 11.9413 48.894 11.9413L48.8921 11.9433Z" fill="#EAEAEA"/>
<path d="M48.8921 9.62372C45.9074 9.82421 42.9189 9.89105 39.9285 9.83994C38.5975 9.7967 36.7566 9.71021 35.4467 9.69055C32.4581 9.64534 29.4715 9.85173 26.4849 9.87139C22.0012 9.95395 17.5213 9.89694 13.0414 9.62372C13.007 9.62372 13.007 9.56475 13.0414 9.56475C17.5213 9.29153 22.0012 9.23452 26.4849 9.31708C29.4715 9.3387 32.4601 9.54509 35.4486 9.49792C38.3893 9.41733 41.4714 9.25614 44.4122 9.36425C45.9055 9.39767 47.4007 9.45664 48.894 9.56278C48.9284 9.56278 48.9284 9.62175 48.894 9.62175L48.8921 9.62372Z" fill="#EAEAEA"/>
<path d="M48.8921 7.30243C45.9074 7.50293 42.9189 7.56976 39.9285 7.51865C38.5975 7.47541 36.7566 7.38892 35.4467 7.36926C32.4581 7.32405 29.4715 7.53044 26.4849 7.5501C22.0012 7.63266 17.5213 7.57565 13.0414 7.30243C13.007 7.30243 13.007 7.24346 13.0414 7.24346C17.5213 6.97024 22.0012 6.91323 26.4849 6.99579C29.4715 7.01741 32.4601 7.2238 35.4486 7.17663C38.3893 7.09604 41.4714 6.93486 44.4122 7.04297C45.9055 7.07638 47.4007 7.13535 48.894 7.2415C48.9284 7.2415 48.9284 7.30046 48.894 7.30046L48.8921 7.30243Z" fill="#EAEAEA"/>
<path d="M48.8921 4.98285C45.9074 5.18335 42.9189 5.25018 39.9285 5.19907C38.5975 5.15583 36.7566 5.06934 35.4467 5.04968C32.4581 5.00447 29.4715 5.21086 26.4849 5.23052C22.0012 5.31308 17.5213 5.25607 13.0414 4.98285C13.007 4.98285 13.007 4.92388 13.0414 4.92388C17.5213 4.65066 22.0012 4.59365 26.4849 4.67621C29.4715 4.69783 32.4601 4.90422 35.4486 4.85705C38.3893 4.77646 41.4714 4.61527 44.4122 4.72339C45.9055 4.7568 47.4007 4.81577 48.894 4.92191C48.9284 4.92191 48.9284 4.98088 48.894 4.98088L48.8921 4.98285Z" fill="#EAEAEA"/>
<path d="M48.8921 2.66132C45.9074 2.86181 42.9189 2.92864 39.9285 2.87754C38.5975 2.83429 36.7566 2.7478 35.4467 2.72815C32.4581 2.68294 29.4715 2.88933 26.4849 2.90899C22.0012 2.99154 17.5213 2.93454 13.0414 2.66132C13.007 2.66132 13.007 2.60235 13.0414 2.60235C17.5213 2.32912 22.0012 2.27212 26.4849 2.35468C29.4715 2.3763 32.4601 2.58269 35.4486 2.53552C38.3893 2.45492 41.4714 2.29374 44.4122 2.40185C45.9055 2.43527 47.4007 2.49424 48.894 2.60038C48.9284 2.60038 48.9284 2.65935 48.894 2.65935L48.8921 2.66132Z" fill="#EAEAEA"/>
</g>
<path d="M28.6094 49.9645L55.063 2.47266H63.9999L37.5463 49.9645H28.6094Z" fill="#EAEAEA"/>
<path d="M35.3905 2.47266H26.4536H0V11.7426H21.29L0 49.9645H8.93689L30.2269 11.7426L35.3905 2.47266Z" fill="#EAEAEA"/>
</g>
<defs>
<clipPath id="clip0_58_72">
<rect width="64" height="50" fill="white"/>
</clipPath>
</defs>
</svg>
